<svg xmlns="http://www.w3.org/2000/svg" xmlns:xlink="http://www.w3.org/1999/xlink" width="328" zoomAndPan="magnify" viewBox="0 0 246 31.5" height="42" preserveAspectRatio="xMidYMid meet" version="1.0"><defs><g/><clipPath id="26f943d1c9"><path d="M 44 8 L 47.542969 8 L 47.542969 12 L 44 12 Z M 44 8 " clip-rule="nonzero"/></clipPath><clipPath id="6255ebcaba"><path d="M 44 0 L 47.542969 0 L 47.542969 3 L 44 3 Z M 44 0 " clip-rule="nonzero"/></clipPath><clipPath id="e1126fa979"><path d="M 16.535156 7 L 41 7 L 41 30.652344 L 16.535156 30.652344 Z M 16.535156 7 " clip-rule="nonzero"/></clipPath></defs><g fill="#ffffff" fill-opacity="1"><g transform="translate(52.982439, 29.647318)"><g><path d="M 25.101562 0.0859375 L 26.71875 -0.0429688 L 27.527344 0.0429688 L 28.847656 0 L 30.039062 -0.210938 L 30.164062 -1.234375 L 29.867188 -2.210938 L 29.230469 -3.785156 L 28.082031 -6 L 27.484375 -7.574219 L 26.632812 -9.105469 L 25.019531 -12.976562 L 24.59375 -13.613281 L 24.167969 -14.421875 L 23.910156 -15.359375 L 23.527344 -15.996094 L 23.273438 -16.679688 L 22.378906 -18.253906 L 22.082031 -19.144531 L 19.273438 -25.058594 L 19.019531 -25.910156 L 18.550781 -26.675781 L 18.296875 -27.441406 L 17.488281 -28.933594 L 16.761719 -29.699219 L 15.359375 -30.125 L 13.996094 -29.65625 L 13.230469 -28.933594 L 12.847656 -28.207031 L 12.550781 -27.359375 L 12.167969 -26.761719 L 10.464844 -22.847656 L 10 -22.210938 L 9.785156 -21.359375 L 9.316406 -20.550781 L 9.0625 -19.785156 L 4.722656 -10.679688 L 4.46875 -9.742188 L 4.042969 -9.105469 L 3.746094 -8.253906 L 2.976562 -6.894531 L 2.339844 -5.191406 L 1.871094 -4.59375 L 1.660156 -3.828125 L 0.808594 -2.128906 L 0.554688 -1.277344 L 0.765625 -0.210938 L 1.617188 0.0429688 L 3.277344 -0.0429688 L 4.128906 0.0429688 L 6.507812 -0.0429688 L 7.488281 -0.339844 L 8.296875 -1.105469 L 9.0625 -2.511719 L 9.871094 -3.320312 L 10.765625 -3.785156 L 11.574219 -3.660156 L 13.359375 -3.828125 L 14.125 -3.703125 L 18.296875 -3.746094 L 19.0625 -3.660156 L 19.996094 -3.785156 L 20.933594 -3.320312 L 21.742188 -2.636719 L 22.125 -1.828125 L 22.378906 -1.0625 L 23.230469 -0.425781 L 24.210938 0 Z M 15.445312 -10.507812 L 14.59375 -10.679688 L 13.613281 -10.59375 L 12.933594 -10.890625 L 12.890625 -11.699219 L 14.890625 -16.296875 L 15.359375 -16.679688 L 15.957031 -16.339844 L 17.953125 -11.65625 L 17.785156 -10.890625 L 17.144531 -10.550781 Z M 15.445312 -10.507812 "/></g></g></g><g fill="#ffffff" fill-opacity="1"><g transform="translate(83.870455, 29.647318)"><g><path d="M 25.101562 -0.722656 L 26.25 -0.0429688 L 27.441406 0.0859375 L 28.378906 -0.210938 L 28.804688 -1.0625 L 28.890625 -16.59375 L 28.761719 -17.316406 L 28.761719 -21.527344 L 28.890625 -22.550781 L 28.761719 -28.464844 L 28.335938 -29.316406 L 27.484375 -29.78125 L 22.210938 -29.742188 L 21.402344 -29.273438 L 20.933594 -28.378906 L 20.890625 -27.484375 L 21.019531 -26.804688 L 20.890625 -25.019531 L 20.976562 -24.082031 L 20.890625 -16.464844 L 20.636719 -15.742188 L 19.996094 -16.039062 L 16.976562 -19.0625 L 15.785156 -19.996094 L 7.402344 -28.464844 L 6.765625 -28.972656 L 5.785156 -29.484375 L 4.511719 -29.78125 L 3.53125 -29.359375 L 3.148438 -28.550781 L 3.148438 -15.65625 L 3.105469 -14.933594 L 3.191406 -13.191406 L 3.0625 -12.464844 L 3.148438 -5.488281 L 3.0625 -4.679688 L 3.148438 -1.105469 L 3.53125 -0.296875 L 4.425781 0 L 6.167969 0.0859375 L 7.105469 0 L 8.765625 0.128906 L 9.65625 0.0859375 L 10.507812 -0.339844 L 10.933594 -1.660156 L 10.976562 -12.421875 L 11.0625 -13.273438 L 11.359375 -13.996094 L 11.914062 -13.785156 L 12.464844 -13.0625 L 15.488281 -10.167969 L 16.039062 -9.53125 L 16.761719 -9.0625 L 23.359375 -2.511719 L 24.464844 -1.277344 Z M 25.101562 -0.722656 "/></g></g></g><g fill="#ffffff" fill-opacity="1"><g transform="translate(115.94974, 29.647318)"><g><path d="M 11.105469 0.0859375 L 13.957031 0 L 15.1875 -0.425781 L 15.613281 -1.617188 L 15.742188 -3.828125 L 15.613281 -5.445312 L 15.699219 -6.339844 L 15.65625 -8.042969 L 15.742188 -8.808594 L 15.613281 -9.742188 L 15.699219 -16.59375 L 15.570312 -17.488281 L 15.699219 -21.1875 L 16.039062 -22.464844 L 16.847656 -22.976562 L 18.507812 -23.058594 L 20.082031 -22.847656 L 20.976562 -22.976562 L 21.742188 -22.933594 L 22.464844 -23.402344 L 22.976562 -24.335938 L 23.019531 -28.378906 L 22.550781 -29.230469 L 21.742188 -29.78125 L 19.105469 -29.78125 L 18.296875 -29.867188 L 17.402344 -29.742188 L 16.59375 -29.824219 L 13.148438 -29.65625 L 12.296875 -29.824219 L 11.488281 -29.867188 L 10.59375 -29.742188 L 9.65625 -29.824219 L 8.890625 -29.65625 L 6.382812 -29.78125 L 5.0625 -29.65625 L 2.085938 -29.824219 L 1.277344 -29.398438 L 0.765625 -28.421875 L 0.808594 -27.570312 L 0.722656 -25.441406 L 0.808594 -24.125 L 1.191406 -23.359375 L 1.957031 -22.933594 L 2.808594 -23.019531 L 6.851562 -22.933594 L 7.660156 -22.507812 L 8.125 -21.65625 L 8.042969 -20.296875 L 8.125 -19.105469 L 8.082031 -18.167969 L 8.125 -17.316406 L 8.042969 -16.125 L 8.167969 -9.785156 L 8.082031 -8.933594 L 8.042969 -5.488281 L 8.125 -4.59375 L 8.082031 -2.128906 L 8 -1.320312 L 8.550781 -0.382812 L 9.785156 0.0429688 Z M 11.105469 0.0859375 "/></g></g></g><g fill="#ffffff" fill-opacity="1"><g transform="translate(139.732656, 29.647318)"><g><path d="M 17.0625 0.554688 L 20.847656 0.171875 L 22.464844 -0.339844 L 26.25 -2.042969 L 29.230469 -4.894531 L 29.78125 -5.660156 L 31.441406 -8.59375 L 31.738281 -9.402344 L 31.867188 -10.253906 L 32.121094 -10.933594 L 32.292969 -11.871094 L 32.507812 -14.847656 L 32.292969 -17.785156 L 31.953125 -19.359375 L 31.613281 -20.253906 L 31.398438 -21.230469 L 30.632812 -22.636719 L 30.335938 -23.402344 L 29.78125 -24.125 L 29.273438 -24.632812 L 28.71875 -25.402344 L 26.890625 -27.058594 L 24.71875 -28.421875 L 19.144531 -30.164062 L 17.144531 -30.207031 L 14.167969 -30.039062 L 13.316406 -29.867188 L 12.464844 -29.613281 L 11.699219 -29.273438 L 10.082031 -28.847656 L 7.914062 -27.484375 L 7.316406 -26.976562 L 5.957031 -26.039062 L 4.808594 -24.761719 L 3.359375 -22.636719 L 2.976562 -21.910156 L 2.167969 -19.570312 L 1.828125 -17.742188 L 1.660156 -12.808594 L 2.128906 -10.125 L 2.765625 -8.679688 L 3.019531 -7.785156 L 3.445312 -7.019531 L 5.445312 -4.296875 L 6.636719 -3.148438 L 7.191406 -2.511719 L 10.082031 -0.980469 L 10.890625 -0.636719 L 14.507812 0.425781 Z M 15.871094 -6.933594 L 15.019531 -7.234375 L 14.253906 -7.316406 L 12.808594 -8.082031 L 11.488281 -9.234375 L 11.0625 -9.828125 L 10.507812 -10.425781 L 9.699219 -12.808594 L 9.488281 -14.933594 L 9.53125 -16.210938 L 9.828125 -17.785156 L 10.082031 -18.550781 L 10.59375 -19.144531 L 10.976562 -19.871094 L 11.53125 -20.550781 L 12.167969 -21.101562 L 13.402344 -21.953125 L 14.167969 -22.335938 L 15.0625 -22.550781 L 17.019531 -22.71875 L 19.0625 -22.59375 L 21.316406 -21.613281 L 22.636719 -20.636719 L 23.613281 -19.1875 L 23.953125 -18.421875 L 24.210938 -17.570312 L 24.507812 -16.804688 L 24.675781 -14.976562 L 24.421875 -12.847656 L 24.039062 -11.105469 L 23.570312 -10.464844 L 23.1875 -9.828125 L 22.675781 -9.0625 L 21.359375 -8.042969 L 20.59375 -7.699219 L 19.910156 -7.316406 L 19.144531 -7.234375 L 18.335938 -7.019531 Z M 15.871094 -6.933594 "/></g></g></g><g fill="#ffffff" fill-opacity="1"><g transform="translate(173.854127, 29.647318)"><g><path d="M 3.105469 -1.234375 L 3.53125 -0.425781 L 4.46875 0 L 7.445312 0.128906 L 9.574219 -0.0429688 L 10.464844 -0.425781 L 10.976562 -1.703125 L 10.847656 -3.0625 L 10.933594 -3.871094 L 10.890625 -8.382812 L 11.273438 -9.234375 L 12.125 -9.617188 L 13.0625 -9.699219 L 13.957031 -9.53125 L 14.804688 -9.699219 L 15.65625 -9.617188 L 16.550781 -9.65625 L 17.402344 -9.574219 L 19.144531 -9.65625 L 20.039062 -10.082031 L 20.464844 -11.402344 L 20.421875 -15.1875 L 19.996094 -16.039062 L 19.105469 -16.378906 L 17.019531 -16.464844 L 14.765625 -16.296875 L 13.105469 -16.507812 L 12.167969 -16.464844 L 11.316406 -16.804688 L 10.847656 -17.699219 L 10.847656 -18.890625 L 10.933594 -19.699219 L 10.847656 -21.613281 L 11.273438 -22.464844 L 12.082031 -23.019531 L 13.445312 -23.019531 L 14.679688 -22.933594 L 15.445312 -22.976562 L 16.296875 -22.933594 L 17.1875 -23.019531 L 20.421875 -22.933594 L 21.273438 -23.359375 L 21.699219 -24.210938 L 21.613281 -26.378906 L 21.699219 -27.996094 L 21.1875 -29.273438 L 20.464844 -29.742188 L 17.914062 -29.699219 L 16.976562 -29.824219 L 15.316406 -29.742188 L 14.550781 -29.824219 L 13.273438 -29.742188 L 12.421875 -29.78125 L 11.105469 -29.699219 L 9.445312 -29.699219 L 8.679688 -29.78125 L 6.507812 -29.78125 L 5.617188 -29.699219 L 4.425781 -29.742188 L 3.488281 -29.273438 L 3.234375 -28.507812 L 3.105469 -26.761719 L 3.234375 -25.484375 L 3.0625 -20.71875 L 3.148438 -19.996094 L 3.191406 -19.105469 L 3.105469 -18.335938 L 3.191406 -17.359375 L 3.105469 -16.59375 L 3.0625 -15.785156 L 3.148438 -14.976562 L 3.0625 -13.996094 Z M 3.105469 -1.234375 "/></g></g></g><g fill="#ffffff" fill-opacity="1"><g transform="translate(197.041413, 29.647318)"><g><path d="M 9.742188 -1.277344 L 10.082031 -0.339844 L 10.976562 0 L 11.828125 0.0429688 L 12.59375 -0.0429688 L 13.914062 0.0429688 L 15.105469 -0.0429688 L 15.957031 0.0429688 L 16.804688 -0.425781 L 17.144531 -1.320312 L 17.273438 -6.253906 L 17.1875 -7.105469 L 17.1875 -7.957031 L 17.316406 -8.722656 L 17.273438 -11.191406 L 17.53125 -12.421875 L 17.953125 -13.53125 L 23.359375 -22.421875 L 23.867188 -23.019531 L 26.59375 -27.527344 L 27.058594 -28.589844 L 26.890625 -29.527344 L 26.125 -29.699219 L 24.464844 -29.742188 L 23.570312 -29.65625 L 22.71875 -29.78125 L 21.0625 -29.742188 L 20.335938 -29.78125 L 19.1875 -29.359375 L 18.421875 -28.632812 L 17.316406 -26.804688 L 16.804688 -25.527344 L 15.871094 -24.167969 L 15.445312 -23.273438 L 15.019531 -22.550781 L 14.296875 -20.933594 L 13.742188 -20.210938 L 13.273438 -20.210938 L 12.808594 -21.019531 L 12.339844 -21.699219 L 11.0625 -24.082031 L 10.59375 -24.804688 L 8.59375 -28.550781 L 7.699219 -29.359375 L 6.722656 -29.742188 L 5.828125 -29.699219 L 5.105469 -29.867188 L 2.9375 -29.699219 L 0.980469 -29.824219 L 0.128906 -29.398438 L 0 -28.464844 L 0.425781 -27.484375 L 2.253906 -24.464844 L 2.722656 -23.867188 L 4.46875 -20.847656 L 5.488281 -19.488281 L 5.828125 -18.722656 L 9.105469 -13.53125 L 9.53125 -12.339844 L 9.742188 -11.191406 L 9.699219 -7.828125 L 9.785156 -6.976562 L 9.699219 -3.703125 L 9.785156 -2.894531 Z M 9.742188 -1.277344 "/></g></g></g><path fill="#ffffff" d="M 42.480469 8.726562 L 39.632812 8.726562 C 38.601562 8.726562 37.761719 7.894531 37.761719 6.867188 L 37.761719 4.035156 C 37.761719 3.011719 38.601562 2.179688 39.632812 2.179688 L 42.480469 2.179688 C 43.511719 2.179688 44.351562 3.011719 44.351562 4.035156 L 44.351562 6.867188 C 44.351562 7.894531 43.511719 8.726562 42.480469 8.726562 " fill-opacity="1" fill-rule="nonzero"/><g clip-path="url(#26f943d1c9)"><path fill="#ffffff" d="M 46.621094 11.949219 L 45.21875 11.949219 C 44.707031 11.949219 44.296875 11.539062 44.296875 11.035156 L 44.296875 9.640625 C 44.296875 9.136719 44.707031 8.726562 45.21875 8.726562 L 46.621094 8.726562 C 47.128906 8.726562 47.542969 9.136719 47.542969 9.640625 L 47.542969 11.035156 C 47.542969 11.539062 47.128906 11.949219 46.621094 11.949219 " fill-opacity="1" fill-rule="nonzero"/></g><g clip-path="url(#6255ebcaba)"><path fill="#ffffff" d="M 46.277344 2.328125 L 45.113281 2.328125 C 44.691406 2.328125 44.351562 1.988281 44.351562 1.570312 L 44.351562 0.414062 C 44.351562 -0.0078125 44.691406 -0.347656 45.113281 -0.347656 L 46.277344 -0.347656 C 46.699219 -0.347656 47.042969 -0.0078125 47.042969 0.414062 L 47.042969 1.570312 C 47.042969 1.988281 46.699219 2.328125 46.277344 2.328125 " fill-opacity="1" fill-rule="nonzero"/></g><g clip-path="url(#e1126fa979)"><path fill="#ffffff" d="M 35.179688 24.644531 C 35.179688 24.679688 35.140625 24.695312 35.117188 24.671875 L 31.242188 20.882812 C 31.234375 20.878906 31.230469 20.867188 31.230469 20.859375 L 31.230469 20.199219 C 31.226562 20.195312 31.222656 20.195312 31.21875 20.195312 L 31.175781 17.527344 C 31.175781 16.65625 30.910156 15.992188 30.378906 15.539062 C 29.851562 15.082031 29.0625 14.855469 28.019531 14.855469 C 27.214844 14.855469 26.507812 14.925781 25.894531 15.0625 C 25.800781 15.082031 25.703125 15.105469 25.605469 15.128906 C 25.59375 15.132812 25.578125 15.128906 25.570312 15.117188 L 23.089844 12.46875 C 23.070312 12.449219 23.078125 12.417969 23.101562 12.40625 C 23.851562 12.097656 24.632812 11.839844 25.441406 11.640625 C 26.320312 11.421875 27.382812 11.3125 28.625 11.3125 C 30.910156 11.3125 32.574219 11.867188 33.617188 12.976562 C 34.660156 14.085938 35.179688 15.628906 35.179688 17.609375 Z M 35.179688 26.050781 C 35.179688 26.070312 35.164062 26.085938 35.144531 26.085938 L 31.1875 26.085938 C 31.164062 26.085938 31.148438 26.070312 31.148438 26.050781 L 31.148438 24.601562 C 31.148438 24.566406 31.105469 24.550781 31.085938 24.574219 C 30.585938 25.105469 29.992188 25.53125 29.308594 25.855469 C 28.597656 26.191406 27.730469 26.359375 26.703125 26.359375 C 26.007812 26.359375 25.355469 26.265625 24.742188 26.074219 C 24.128906 25.882812 23.59375 25.59375 23.136719 25.214844 C 22.679688 24.832031 22.320312 24.363281 22.054688 23.808594 C 21.789062 23.257812 21.65625 22.617188 21.65625 21.890625 L 21.65625 21.835938 C 21.65625 21.035156 21.804688 20.34375 22.09375 19.761719 C 22.386719 19.179688 22.796875 18.699219 23.316406 18.316406 C 23.839844 17.9375 24.460938 17.648438 25.183594 17.460938 C 25.195312 17.457031 25.207031 17.453125 25.222656 17.449219 C 25.902344 17.273438 26.65625 17.179688 27.476562 17.171875 C 27.484375 17.171875 27.496094 17.175781 27.503906 17.183594 L 29.070312 18.761719 L 29.890625 19.585938 L 30.042969 19.742188 C 30.070312 19.769531 30.046875 19.8125 30.011719 19.804688 C 29.5625 19.703125 29.082031 19.652344 28.570312 19.652344 C 28.246094 19.652344 27.945312 19.675781 27.671875 19.722656 C 27.1875 19.800781 26.785156 19.949219 26.457031 20.171875 C 25.945312 20.515625 25.6875 21.015625 25.6875 21.671875 L 25.6875 21.726562 C 25.6875 22.289062 25.898438 22.722656 26.320312 23.035156 C 26.742188 23.34375 27.289062 23.496094 27.964844 23.496094 C 28.953125 23.496094 29.746094 23.261719 30.339844 22.789062 C 30.601562 22.578125 30.804688 22.34375 30.953125 22.078125 C 30.960938 22.058594 30.988281 22.054688 31.003906 22.066406 L 35.164062 24.988281 C 35.175781 24.996094 35.179688 25.007812 35.179688 25.019531 Z M 32.230469 7.027344 L 24.605469 7.027344 C 20.148438 7.027344 16.535156 10.617188 16.535156 15.046875 L 16.535156 22.625 C 16.535156 27.054688 20.148438 30.644531 24.605469 30.644531 L 32.230469 30.644531 C 36.6875 30.644531 40.304688 27.054688 40.304688 22.625 L 40.304688 15.046875 C 40.304688 10.617188 36.6875 7.027344 32.230469 7.027344 " fill-opacity="1" fill-rule="nonzero"/></g></svg>