<svg xmlns="http://www.w3.org/2000/svg" xmlns:xlink="http://www.w3.org/1999/xlink" width="250" zoomAndPan="magnify" viewBox="0 0 187.5 52.499999" height="70" preserveAspectRatio="xMidYMid meet" version="1.0"><defs><g/><clipPath id="f8b73d6975"><path d="M 38 17 L 42.5 17 L 42.5 22 L 38 22 Z M 38 17 " clip-rule="nonzero"/></clipPath><clipPath id="951600e89b"><path d="M 38 6.527344 L 42 6.527344 L 42 10 L 38 10 Z M 38 6.527344 " clip-rule="nonzero"/></clipPath><clipPath id="58bb112a72"><path d="M 3.765625 15 L 34 15 L 34 45.261719 L 3.765625 45.261719 Z M 3.765625 15 " clip-rule="nonzero"/></clipPath></defs><g fill="#000000" fill-opacity="1"><g transform="translate(45.117417, 37.013403)"><g><path d="M 19.421875 0.0664062 L 20.671875 -0.03125 L 21.296875 0.03125 L 22.316406 0 L 23.238281 -0.164062 L 23.335938 -0.953125 L 23.105469 -1.710938 L 22.613281 -2.929688 L 21.722656 -4.640625 L 21.261719 -5.859375 L 20.605469 -7.042969 L 19.355469 -10.039062 L 19.023438 -10.53125 L 18.695312 -11.160156 L 18.5 -11.882812 L 18.203125 -12.375 L 18.003906 -12.902344 L 17.3125 -14.121094 L 17.082031 -14.8125 L 14.910156 -19.386719 L 14.714844 -20.046875 L 14.351562 -20.636719 L 14.152344 -21.230469 L 13.527344 -22.382812 L 12.96875 -22.976562 L 11.882812 -23.304688 L 10.828125 -22.941406 L 10.238281 -22.382812 L 9.941406 -21.824219 L 9.710938 -21.164062 L 9.414062 -20.703125 L 8.097656 -17.675781 L 7.734375 -17.183594 L 7.570312 -16.523438 L 7.207031 -15.898438 L 7.011719 -15.304688 L 3.652344 -8.261719 L 3.457031 -7.539062 L 3.128906 -7.042969 L 2.898438 -6.386719 L 2.304688 -5.332031 L 1.808594 -4.015625 L 1.449219 -3.554688 L 1.285156 -2.960938 L 0.625 -1.644531 L 0.429688 -0.988281 L 0.59375 -0.164062 L 1.25 0.03125 L 2.535156 -0.03125 L 3.191406 0.03125 L 5.035156 -0.03125 L 5.792969 -0.261719 L 6.417969 -0.855469 L 7.011719 -1.941406 L 7.636719 -2.566406 L 8.328125 -2.929688 L 8.953125 -2.832031 L 10.335938 -2.960938 L 10.929688 -2.863281 L 14.152344 -2.898438 L 14.746094 -2.832031 L 15.46875 -2.929688 L 16.195312 -2.566406 L 16.820312 -2.039062 L 17.117188 -1.414062 L 17.3125 -0.824219 L 17.972656 -0.328125 L 18.730469 0 Z M 11.949219 -8.128906 L 11.289062 -8.261719 L 10.53125 -8.195312 L 10.007812 -8.425781 L 9.972656 -9.050781 L 11.519531 -12.605469 L 11.882812 -12.902344 L 12.34375 -12.640625 L 13.890625 -9.019531 L 13.757812 -8.425781 L 13.265625 -8.164062 Z M 11.949219 -8.128906 "/></g></g></g><g fill="#000000" fill-opacity="1"><g transform="translate(69.013181, 37.013403)"><g><path d="M 19.421875 -0.558594 L 20.308594 -0.03125 L 21.230469 0.0664062 L 21.953125 -0.164062 L 22.285156 -0.824219 L 22.351562 -12.835938 L 22.25 -13.398438 L 22.25 -16.65625 L 22.351562 -17.445312 L 22.25 -22.019531 L 21.921875 -22.679688 L 21.261719 -23.039062 L 17.183594 -23.007812 L 16.554688 -22.644531 L 16.195312 -21.953125 L 16.160156 -21.261719 L 16.261719 -20.738281 L 16.160156 -19.355469 L 16.226562 -18.628906 L 16.160156 -12.738281 L 15.964844 -12.179688 L 15.46875 -12.410156 L 13.132812 -14.746094 L 12.210938 -15.46875 L 5.726562 -22.019531 L 5.234375 -22.414062 L 4.476562 -22.808594 L 3.488281 -23.039062 L 2.730469 -22.710938 L 2.4375 -22.085938 L 2.4375 -12.113281 L 2.402344 -11.554688 L 2.46875 -10.203125 L 2.371094 -9.644531 L 2.4375 -4.246094 L 2.371094 -3.621094 L 2.4375 -0.855469 L 2.730469 -0.230469 L 3.421875 0 L 4.773438 0.0664062 L 5.496094 0 L 6.78125 0.0976562 L 7.472656 0.0664062 L 8.128906 -0.261719 L 8.460938 -1.285156 L 8.492188 -9.613281 L 8.558594 -10.269531 L 8.789062 -10.828125 L 9.214844 -10.664062 L 9.644531 -10.105469 L 11.980469 -7.867188 L 12.410156 -7.375 L 12.96875 -7.011719 L 18.070312 -1.941406 L 18.925781 -0.988281 Z M 19.421875 -0.558594 "/></g></g></g><g fill="#000000" fill-opacity="1"><g transform="translate(93.830541, 37.013403)"><g><path d="M 8.589844 0.0664062 L 10.796875 0 L 11.75 -0.328125 L 12.078125 -1.25 L 12.179688 -2.960938 L 12.078125 -4.214844 L 12.144531 -4.90625 L 12.113281 -6.222656 L 12.179688 -6.8125 L 12.078125 -7.539062 L 12.144531 -12.835938 L 12.046875 -13.527344 L 12.144531 -16.390625 L 12.410156 -17.378906 L 13.035156 -17.773438 L 14.316406 -17.839844 L 15.535156 -17.675781 L 16.226562 -17.773438 L 16.820312 -17.742188 L 17.378906 -18.105469 L 17.773438 -18.828125 L 17.808594 -21.953125 L 17.445312 -22.613281 L 16.820312 -23.039062 L 14.777344 -23.039062 L 14.152344 -23.105469 L 13.460938 -23.007812 L 12.835938 -23.074219 L 10.171875 -22.941406 L 9.511719 -23.074219 L 8.886719 -23.105469 L 8.195312 -23.007812 L 7.472656 -23.074219 L 6.878906 -22.941406 L 4.9375 -23.039062 L 3.917969 -22.941406 L 1.613281 -23.074219 L 0.988281 -22.746094 L 0.59375 -21.988281 L 0.625 -21.328125 L 0.558594 -19.683594 L 0.625 -18.664062 L 0.921875 -18.070312 L 1.515625 -17.742188 L 2.171875 -17.808594 L 5.300781 -17.742188 L 5.925781 -17.414062 L 6.285156 -16.753906 L 6.222656 -15.699219 L 6.285156 -14.777344 L 6.253906 -14.054688 L 6.285156 -13.398438 L 6.222656 -12.476562 L 6.320312 -7.570312 L 6.253906 -6.914062 L 6.222656 -4.246094 L 6.285156 -3.554688 L 6.253906 -1.644531 L 6.1875 -1.019531 L 6.617188 -0.296875 L 7.570312 0.03125 Z M 8.589844 0.0664062 "/></g></g></g><g fill="#000000" fill-opacity="1"><g transform="translate(112.229617, 37.013403)"><g><path d="M 13.199219 0.429688 L 16.128906 0.132812 L 17.378906 -0.261719 L 20.308594 -1.578125 L 22.613281 -3.785156 L 23.039062 -4.378906 L 24.324219 -6.648438 L 24.554688 -7.273438 L 24.652344 -7.933594 L 24.851562 -8.460938 L 24.984375 -9.183594 L 25.148438 -11.488281 L 24.984375 -13.757812 L 24.71875 -14.976562 L 24.457031 -15.667969 L 24.292969 -16.425781 L 23.699219 -17.511719 L 23.46875 -18.105469 L 23.039062 -18.664062 L 22.644531 -19.058594 L 22.21875 -19.652344 L 20.800781 -20.933594 L 19.125 -21.988281 L 14.8125 -23.335938 L 13.265625 -23.371094 L 10.960938 -23.238281 L 10.300781 -23.105469 L 9.644531 -22.910156 L 9.050781 -22.644531 L 7.800781 -22.316406 L 6.121094 -21.261719 L 5.660156 -20.867188 L 4.609375 -20.144531 L 3.71875 -19.15625 L 2.601562 -17.511719 L 2.304688 -16.953125 L 1.679688 -15.140625 L 1.414062 -13.726562 L 1.285156 -9.90625 L 1.644531 -7.832031 L 2.140625 -6.714844 L 2.335938 -6.023438 L 2.667969 -5.429688 L 4.214844 -3.324219 L 5.136719 -2.4375 L 5.5625 -1.941406 L 7.800781 -0.757812 L 8.425781 -0.492188 L 11.222656 0.328125 Z M 12.277344 -5.363281 L 11.621094 -5.59375 L 11.027344 -5.660156 L 9.90625 -6.253906 L 8.886719 -7.144531 L 8.558594 -7.601562 L 8.128906 -8.0625 L 7.503906 -9.90625 L 7.339844 -11.554688 L 7.375 -12.539062 L 7.601562 -13.757812 L 7.800781 -14.351562 L 8.195312 -14.8125 L 8.492188 -15.371094 L 8.921875 -15.898438 L 9.414062 -16.324219 L 10.367188 -16.984375 L 10.960938 -17.28125 L 11.652344 -17.445312 L 13.167969 -17.578125 L 14.746094 -17.476562 L 16.492188 -16.722656 L 17.511719 -15.964844 L 18.269531 -14.84375 L 18.53125 -14.253906 L 18.730469 -13.59375 L 18.960938 -13 L 19.089844 -11.585938 L 18.894531 -9.941406 L 18.597656 -8.589844 L 18.234375 -8.097656 L 17.9375 -7.601562 L 17.542969 -7.011719 L 16.523438 -6.222656 L 15.929688 -5.957031 L 15.40625 -5.660156 L 14.8125 -5.59375 L 14.1875 -5.429688 Z M 12.277344 -5.363281 "/></g></g></g><g fill="#000000" fill-opacity="1"><g transform="translate(138.626865, 37.013403)"><g><path d="M 2.402344 -0.953125 L 2.730469 -0.328125 L 3.457031 0 L 5.761719 0.0976562 L 7.40625 -0.03125 L 8.097656 -0.328125 L 8.492188 -1.316406 L 8.394531 -2.371094 L 8.460938 -2.996094 L 8.425781 -6.484375 L 8.722656 -7.144531 L 9.382812 -7.4375 L 10.105469 -7.503906 L 10.796875 -7.375 L 11.453125 -7.503906 L 12.113281 -7.4375 L 12.804688 -7.472656 L 13.460938 -7.40625 L 14.8125 -7.472656 L 15.503906 -7.800781 L 15.832031 -8.820312 L 15.800781 -11.75 L 15.46875 -12.410156 L 14.777344 -12.671875 L 13.167969 -12.738281 L 11.421875 -12.605469 L 10.136719 -12.769531 L 9.414062 -12.738281 L 8.753906 -13 L 8.394531 -13.691406 L 8.394531 -14.613281 L 8.460938 -15.238281 L 8.394531 -16.722656 L 8.722656 -17.378906 L 9.347656 -17.808594 L 10.402344 -17.808594 L 11.355469 -17.742188 L 11.949219 -17.773438 L 12.605469 -17.742188 L 13.296875 -17.808594 L 15.800781 -17.742188 L 16.457031 -18.070312 L 16.785156 -18.730469 L 16.722656 -20.40625 L 16.785156 -21.660156 L 16.390625 -22.644531 L 15.832031 -23.007812 L 13.859375 -22.976562 L 13.132812 -23.074219 L 11.847656 -23.007812 L 11.257812 -23.074219 L 10.269531 -23.007812 L 9.613281 -23.039062 L 8.589844 -22.976562 L 7.308594 -22.976562 L 6.714844 -23.039062 L 5.035156 -23.039062 L 4.34375 -22.976562 L 3.421875 -23.007812 L 2.699219 -22.644531 L 2.5 -22.054688 L 2.402344 -20.703125 L 2.5 -19.714844 L 2.371094 -16.03125 L 2.4375 -15.46875 L 2.46875 -14.777344 L 2.402344 -14.1875 L 2.46875 -13.429688 L 2.402344 -12.835938 L 2.371094 -12.210938 L 2.4375 -11.585938 L 2.371094 -10.828125 Z M 2.402344 -0.953125 "/></g></g></g><g fill="#000000" fill-opacity="1"><g transform="translate(156.565146, 37.013403)"><g><path d="M 7.539062 -0.988281 L 7.800781 -0.261719 L 8.492188 0 L 9.152344 0.03125 L 9.742188 -0.03125 L 10.761719 0.03125 L 11.683594 -0.03125 L 12.34375 0.03125 L 13 -0.328125 L 13.265625 -1.019531 L 13.363281 -4.839844 L 13.296875 -5.496094 L 13.296875 -6.15625 L 13.398438 -6.746094 L 13.363281 -8.65625 L 13.5625 -9.613281 L 13.890625 -10.46875 L 18.070312 -17.347656 L 18.464844 -17.808594 L 20.570312 -21.296875 L 20.933594 -22.121094 L 20.800781 -22.84375 L 20.210938 -22.976562 L 18.925781 -23.007812 L 18.234375 -22.941406 L 17.578125 -23.039062 L 16.292969 -23.007812 L 15.734375 -23.039062 L 14.84375 -22.710938 L 14.253906 -22.152344 L 13.398438 -20.738281 L 13 -19.75 L 12.277344 -18.695312 L 11.949219 -18.003906 L 11.621094 -17.445312 L 11.058594 -16.195312 L 10.632812 -15.636719 L 10.269531 -15.636719 L 9.90625 -16.261719 L 9.546875 -16.785156 L 8.558594 -18.628906 L 8.195312 -19.191406 L 6.648438 -22.085938 L 5.957031 -22.710938 L 5.199219 -23.007812 L 4.507812 -22.976562 L 3.949219 -23.105469 L 2.269531 -22.976562 L 0.757812 -23.074219 L 0.0976562 -22.746094 L 0 -22.019531 L 0.328125 -21.261719 L 1.746094 -18.925781 L 2.105469 -18.464844 L 3.457031 -16.128906 L 4.246094 -15.074219 L 4.507812 -14.484375 L 7.042969 -10.46875 L 7.375 -9.546875 L 7.539062 -8.65625 L 7.503906 -6.054688 L 7.570312 -5.398438 L 7.503906 -2.863281 L 7.570312 -2.238281 Z M 7.539062 -0.988281 "/></g></g></g><path fill="#000000" d="M 36.175781 17.871094 L 32.617188 17.871094 C 31.328125 17.871094 30.285156 16.832031 30.285156 15.550781 L 30.285156 12.011719 C 30.285156 10.730469 31.328125 9.691406 32.617188 9.691406 L 36.175781 9.691406 C 37.464844 9.691406 38.511719 10.730469 38.511719 12.011719 L 38.511719 15.550781 C 38.511719 16.832031 37.464844 17.871094 36.175781 17.871094 " fill-opacity="1" fill-rule="nonzero"/><g clip-path="url(#f8b73d6975)"><path fill="#000000" d="M 41.347656 21.898438 L 39.59375 21.898438 C 38.960938 21.898438 38.445312 21.386719 38.445312 20.753906 L 38.445312 19.011719 C 38.445312 18.382812 38.960938 17.871094 39.59375 17.871094 L 41.347656 17.871094 C 41.984375 17.871094 42.5 18.382812 42.5 19.011719 L 42.5 20.753906 C 42.5 21.386719 41.984375 21.898438 41.347656 21.898438 " fill-opacity="1" fill-rule="nonzero"/></g><g clip-path="url(#951600e89b)"><path fill="#000000" d="M 40.921875 9.878906 L 39.464844 9.878906 C 38.9375 9.878906 38.511719 9.453125 38.511719 8.929688 L 38.511719 7.484375 C 38.511719 6.960938 38.9375 6.539062 39.464844 6.539062 L 40.921875 6.539062 C 41.445312 6.539062 41.875 6.960938 41.875 7.484375 L 41.875 8.929688 C 41.875 9.453125 41.445312 9.878906 40.921875 9.878906 " fill-opacity="1" fill-rule="nonzero"/></g><g clip-path="url(#58bb112a72)"><path fill="#000000" d="M 27.058594 37.757812 C 27.058594 37.800781 27.007812 37.820312 26.976562 37.792969 L 22.136719 33.058594 C 22.128906 33.050781 22.125 33.039062 22.125 33.027344 L 22.125 32.203125 C 22.117188 32.203125 22.113281 32.199219 22.109375 32.195312 L 22.054688 28.867188 C 22.054688 27.777344 21.722656 26.949219 21.0625 26.378906 C 20.398438 25.8125 19.417969 25.527344 18.113281 25.527344 C 17.109375 25.527344 16.222656 25.613281 15.457031 25.785156 C 15.339844 25.8125 15.21875 25.839844 15.097656 25.871094 C 15.078125 25.875 15.0625 25.871094 15.050781 25.859375 L 11.953125 22.546875 C 11.929688 22.523438 11.941406 22.484375 11.96875 22.472656 C 12.90625 22.082031 13.878906 21.761719 14.894531 21.511719 C 15.988281 21.238281 17.3125 21.101562 18.867188 21.101562 C 21.722656 21.101562 23.800781 21.796875 25.105469 23.179688 C 26.40625 24.566406 27.058594 26.496094 27.058594 28.96875 Z M 27.058594 39.511719 C 27.058594 39.539062 27.035156 39.558594 27.011719 39.558594 L 22.066406 39.558594 C 22.042969 39.558594 22.019531 39.539062 22.019531 39.511719 L 22.019531 37.703125 C 22.019531 37.660156 21.96875 37.640625 21.941406 37.671875 C 21.316406 38.335938 20.578125 38.867188 19.722656 39.269531 C 18.832031 39.691406 17.75 39.898438 16.46875 39.898438 C 15.601562 39.898438 14.785156 39.78125 14.019531 39.542969 C 13.253906 39.304688 12.585938 38.945312 12.015625 38.46875 C 11.441406 37.992188 10.992188 37.410156 10.660156 36.714844 C 10.328125 36.023438 10.164062 35.222656 10.164062 34.316406 L 10.164062 34.246094 C 10.164062 33.25 10.347656 32.386719 10.710938 31.660156 C 11.078125 30.933594 11.585938 30.332031 12.238281 29.855469 C 12.886719 29.378906 13.664062 29.019531 14.566406 28.78125 C 14.582031 28.777344 14.597656 28.773438 14.617188 28.769531 C 15.46875 28.546875 16.40625 28.433594 17.433594 28.425781 C 17.445312 28.425781 17.457031 28.429688 17.464844 28.4375 L 19.425781 30.410156 L 20.445312 31.4375 L 20.640625 31.632812 C 20.675781 31.664062 20.644531 31.71875 20.597656 31.710938 C 20.039062 31.585938 19.4375 31.523438 18.800781 31.523438 C 18.394531 31.523438 18.019531 31.550781 17.679688 31.609375 C 17.074219 31.707031 16.570312 31.894531 16.160156 32.171875 C 15.519531 32.601562 15.199219 33.226562 15.199219 34.042969 L 15.199219 34.109375 C 15.199219 34.816406 15.464844 35.359375 15.988281 35.746094 C 16.515625 36.132812 17.199219 36.324219 18.046875 36.324219 C 19.277344 36.324219 20.265625 36.03125 21.007812 35.4375 C 21.335938 35.179688 21.589844 34.882812 21.773438 34.550781 C 21.789062 34.527344 21.820312 34.519531 21.839844 34.535156 L 27.039062 38.191406 C 27.050781 38.199219 27.058594 38.210938 27.058594 38.226562 Z M 23.375 15.746094 L 13.847656 15.746094 C 8.277344 15.746094 3.765625 20.234375 3.765625 25.769531 L 3.765625 35.234375 C 3.765625 40.769531 8.277344 45.253906 13.847656 45.253906 L 23.375 45.253906 C 28.941406 45.253906 33.457031 40.769531 33.457031 35.234375 L 33.457031 25.769531 C 33.457031 20.234375 28.941406 15.746094 23.375 15.746094 " fill-opacity="1" fill-rule="nonzero"/></g></svg>