<svg xmlns="http://www.w3.org/2000/svg" xmlns:xlink="http://www.w3.org/1999/xlink" width="40" zoomAndPan="magnify" viewBox="0 0 30 30.000001" height="40" preserveAspectRatio="xMidYMid meet" version="1.0"><defs><clipPath id="84558b6ce7"><path d="M 24 9 L 27.621094 9 L 27.621094 12 L 24 12 Z M 24 9 " clip-rule="nonzero"/></clipPath><clipPath id="218ab851b7"><path d="M 25 1.652344 L 27.621094 1.652344 L 27.621094 4 L 25 4 Z M 25 1.652344 " clip-rule="nonzero"/></clipPath><clipPath id="9928bbd81a"><path d="M 2.214844 7 L 22 7 L 22 27.054688 L 2.214844 27.054688 Z M 2.214844 7 " clip-rule="nonzero"/></clipPath></defs><path fill="#737373" d="M 23.472656 9.089844 L 21.140625 9.089844 C 20.292969 9.089844 19.609375 8.410156 19.609375 7.570312 L 19.609375 5.25 C 19.609375 4.410156 20.292969 3.726562 21.140625 3.726562 L 23.472656 3.726562 C 24.320312 3.726562 25.003906 4.410156 25.003906 5.25 L 25.003906 7.570312 C 25.003906 8.410156 24.320312 9.089844 23.472656 9.089844 " fill-opacity="1" fill-rule="nonzero"/><g clip-path="url(#84558b6ce7)"><path fill="#737373" d="M 26.863281 11.734375 L 25.714844 11.734375 C 25.296875 11.734375 24.960938 11.398438 24.960938 10.984375 L 24.960938 9.839844 C 24.960938 9.425781 25.296875 9.089844 25.714844 9.089844 L 26.863281 9.089844 C 27.28125 9.089844 27.617188 9.425781 27.617188 9.839844 L 27.617188 10.984375 C 27.617188 11.398438 27.28125 11.734375 26.863281 11.734375 " fill-opacity="1" fill-rule="nonzero"/></g><g clip-path="url(#218ab851b7)"><path fill="#737373" d="M 26.582031 3.847656 L 25.628906 3.847656 C 25.285156 3.847656 25.003906 3.570312 25.003906 3.226562 L 25.003906 2.28125 C 25.003906 1.9375 25.285156 1.65625 25.628906 1.65625 L 26.582031 1.65625 C 26.929688 1.65625 27.207031 1.9375 27.207031 2.28125 L 27.207031 3.226562 C 27.207031 3.570312 26.929688 3.847656 26.582031 3.847656 " fill-opacity="1" fill-rule="nonzero"/></g><g clip-path="url(#9928bbd81a)"><path fill="#737373" d="M 17.492188 22.136719 C 17.492188 22.164062 17.460938 22.175781 17.441406 22.15625 L 14.265625 19.054688 C 14.257812 19.046875 14.253906 19.039062 14.253906 19.03125 L 14.253906 18.492188 C 14.253906 18.492188 14.25 18.488281 14.246094 18.488281 L 14.210938 16.304688 C 14.210938 15.589844 13.992188 15.042969 13.558594 14.671875 C 13.125 14.300781 12.480469 14.113281 11.625 14.113281 C 10.96875 14.113281 10.386719 14.167969 9.882812 14.28125 C 9.804688 14.300781 9.726562 14.316406 9.648438 14.335938 C 9.636719 14.339844 9.625 14.335938 9.617188 14.328125 L 7.585938 12.15625 C 7.570312 12.140625 7.578125 12.117188 7.597656 12.109375 C 8.210938 11.855469 8.847656 11.644531 9.515625 11.476562 C 10.234375 11.300781 11.101562 11.210938 12.121094 11.210938 C 13.992188 11.210938 15.355469 11.664062 16.210938 12.574219 C 17.066406 13.480469 17.492188 14.746094 17.492188 16.371094 Z M 17.492188 23.285156 C 17.492188 23.300781 17.476562 23.316406 17.460938 23.316406 L 14.21875 23.316406 C 14.203125 23.316406 14.1875 23.300781 14.1875 23.285156 L 14.1875 22.097656 C 14.1875 22.070312 14.15625 22.058594 14.136719 22.078125 C 13.726562 22.511719 13.242188 22.863281 12.683594 23.125 C 12.097656 23.402344 11.386719 23.539062 10.546875 23.539062 C 9.976562 23.539062 9.441406 23.460938 8.941406 23.304688 C 8.4375 23.148438 8 22.914062 7.625 22.601562 C 7.25 22.289062 6.957031 21.90625 6.738281 21.449219 C 6.519531 20.996094 6.414062 20.472656 6.414062 19.875 L 6.414062 19.832031 C 6.414062 19.175781 6.53125 18.609375 6.773438 18.132812 C 7.011719 17.65625 7.34375 17.261719 7.773438 16.949219 C 8.199219 16.636719 8.707031 16.402344 9.300781 16.246094 C 9.3125 16.246094 9.320312 16.242188 9.332031 16.238281 C 9.890625 16.09375 10.507812 16.019531 11.179688 16.011719 C 11.1875 16.011719 11.195312 16.015625 11.203125 16.023438 L 12.488281 17.316406 L 13.15625 17.988281 L 13.285156 18.117188 C 13.304688 18.136719 13.285156 18.175781 13.257812 18.167969 C 12.886719 18.085938 12.496094 18.046875 12.074219 18.046875 C 11.808594 18.046875 11.566406 18.0625 11.339844 18.101562 C 10.945312 18.167969 10.613281 18.289062 10.34375 18.46875 C 9.925781 18.753906 9.714844 19.160156 9.714844 19.699219 L 9.714844 19.742188 C 9.714844 20.203125 9.886719 20.5625 10.234375 20.8125 C 10.578125 21.066406 11.027344 21.195312 11.582031 21.195312 C 12.390625 21.195312 13.039062 21 13.527344 20.613281 C 13.738281 20.441406 13.90625 20.25 14.027344 20.03125 C 14.035156 20.015625 14.054688 20.011719 14.070312 20.019531 L 17.480469 22.417969 C 17.488281 22.421875 17.492188 22.433594 17.492188 22.441406 Z M 15.074219 7.699219 L 8.828125 7.699219 C 5.175781 7.699219 2.214844 10.640625 2.214844 14.269531 L 2.214844 20.480469 C 2.214844 24.109375 5.175781 27.050781 8.828125 27.050781 L 15.074219 27.050781 C 18.726562 27.050781 21.6875 24.109375 21.6875 20.480469 L 21.6875 14.269531 C 21.6875 10.640625 18.726562 7.699219 15.074219 7.699219 " fill-opacity="1" fill-rule="nonzero"/></g></svg>